<svg xmlns="http://www.w3.org/2000/svg" width="16" height="16" viewBox="0 0 16 16" fill="none"> <path fill-rule="evenodd" clip-rule="evenodd" d="M8 2.5C5.51472 2.5 3.5 4.51472 3.5 7C3.5 9.48528 5.51472 11.5 8 11.5C10.4853 11.5 12.5 9.48528 12.5 7C12.5 6.72386 12.7239 6.5 13 6.5C13.2761 6.5 13.5 6.72386 13.5 7C13.5 10.0376 11.0376 12.5 8 12.5C4.96243 12.5 2.5 10.0376 2.5 7C2.5 3.96243 4.96243 1.5 8 1.5C9.71291 1.5 11.2527 2.22729 12.3358 3.39711V2.5C12.3358 2.22386 12.5596 2 12.8358 2C13.1119 2 13.3358 2.22386 13.3358 2.5V5.5C13.3358 5.77614 13.1119 6 12.8358 6H9.83579C9.55964 6 9.33579 5.77614 9.33579 5.5C9.33579 5.22386 9.55964 5 9.83579 5H11.8425C10.9038 3.61452 9.54068 2.5 8 2.5Z" fill="white"/> </svg>