<svg width="41" height="30" viewBox="0 0 41 30" fill="none" xmlns="http://www.w3.org/2000/svg">
<g id="Group">
<path id="Vector" d="M39.9985 5.16554C39.5276 3.40659 38.1453 2.02432 36.3864 1.55347C33.2014 0.699219 20.4247 0.699219 20.4247 0.699219C20.4247 0.699219 7.6479 0.699219 4.46295 1.55347C2.70737 2.02432 1.32173 3.40659 0.850887 5.16554C-4.26182e-07 8.35048 0 14.9995 0 14.9995C0 14.9995 -2.21615e-06 21.6486 0.854248 24.8335C1.3251 26.5925 2.70737 27.9747 4.46632 28.4455C7.65126 29.2998 20.428 29.2998 20.428 29.2998C20.428 29.2998 33.2049 29.2998 36.3897 28.4455C38.1488 27.9747 39.531 26.5925 40.0018 24.8335C40.8561 21.6486 40.8561 14.9995 40.8561 14.9995C40.8561 14.9995 40.8526 8.35048 39.9985 5.16554Z" fill="#FF0000"/>
<path id="Vector_2" d="M16.3418 21.1275L26.9526 14.9998L16.3418 8.87207V21.1275Z" fill="white"/>
</g>
</svg>
