<svg width="41" height="30" viewBox="0 0 41 30" fill="none" xmlns="http://www.w3.org/2000/svg">
<g id="Group">
<path id="Vector" d="M39.9985 5.16603C39.5276 3.40708 38.1453 2.0248 36.3864 1.55396C33.2014 0.699707 20.4247 0.699707 20.4247 0.699707C20.4247 0.699707 7.6479 0.699707 4.46295 1.55396C2.70737 2.0248 1.32173 3.40708 0.850887 5.16603C-4.26182e-07 8.35096 0 15 0 15C0 15 -2.21615e-06 21.6491 0.854248 24.834C1.3251 26.593 2.70737 27.9752 4.46632 28.446C7.65126 29.3003 20.428 29.3003 20.428 29.3003C20.428 29.3003 33.2049 29.3003 36.3897 28.446C38.1488 27.9752 39.531 26.593 40.0018 24.834C40.8561 21.6491 40.8561 15 40.8561 15C40.8561 15 40.8526 8.35096 39.9985 5.16603Z" fill="#FF0000"/>
<path id="Vector_2" d="M16.3418 21.1285L26.9526 15.0008L16.3418 8.87305V21.1285Z" fill="white"/>
</g>
</svg>
